<?xml version="1.0" standalone="no"?>
<!DOCTYPE svg PUBLIC "-//W3C//DTD SVG 20010904//EN"
 "http://www.w3.org/TR/2001/REC-SVG-20010904/DTD/svg10.dtd">
<svg version="1.0" xmlns="http://www.w3.org/2000/svg"
 width="240.000000pt" height="240.000000pt" viewBox="0 0 240.000000 240.000000"
 preserveAspectRatio="xMidYMid meet">
<metadata>
Created by potrace 1.11, written by Peter Selinger 2001-2013
</metadata>
<g transform="translate(0.000000,240.000000) scale(0.100000,-0.100000)"
fill="#000000" stroke="none">
<path d="M0 1200 l0 -1200 1200 0 1200 0 0 1200 0 1200 -1200 0 -1200 0 0
-1200z m834 565 c96 -27 176 -73 242 -139 103 -104 154 -247 154 -436 0 -260
-103 -451 -292 -544 -113 -55 -185 -66 -449 -66 l-229 0 0 606 0 606 258 -5
c200 -4 270 -8 316 -22z m636 -270 c0 -162 4 -295 8 -295 5 0 129 133 278 295
l269 295 85 0 84 0 -36 -37 c-226 -238 -448 -488 -444 -499 3 -8 114 -161 246
-339 132 -179 240 -327 240 -330 0 -3 -36 -5 -80 -5 l-79 0 -213 282 c-117
155 -216 286 -220 291 -3 6 -35 -15 -72 -48 l-66 -57 0 -234 0 -234 -70 0 -70
0 0 605 0 605 70 0 70 0 0 -295z"/>
<path d="M408 1665 c-5 -5 -8 -224 -8 -487 l0 -478 133 0 c78 0 161 6 202 15
229 49 344 206 345 471 0 253 -100 405 -305 461 -57 15 -356 30 -367 18z"/>
</g>
</svg>
